<mxfile host="app.diagrams.net" agent="Mozilla/5.0 (Windows NT 10.0; Win64; x64) AppleWebKit/537.36 (KHTML, like Gecko) Chrome/136.0.0.0 Safari/537.36" version="27.0.6">
  <diagram name="Page-1" id="bAa-K6QBdSn_V-wN1Gk9">
    <mxGraphModel dx="2078" dy="738" grid="1" gridSize="11" guides="1" tooltips="1" connect="1" arrows="1" fold="1" page="1" pageScale="1" pageWidth="827" pageHeight="1169" math="0" shadow="0">
      <root>
        <mxCell id="0" />
        <mxCell id="1" parent="0" />
        <mxCell id="Lu-fr-W5cNsqdgwYgwqe-1" value="&lt;font style=&quot;font-size: 21px;&quot;&gt;user_name&lt;/font&gt;" style="ellipse;whiteSpace=wrap;html=1;" parent="1" vertex="1">
          <mxGeometry x="-533" y="149" width="119" height="60" as="geometry" />
        </mxCell>
        <mxCell id="Lu-fr-W5cNsqdgwYgwqe-2" value="&lt;font style=&quot;font-size: 21px;&quot;&gt;Phone_num&lt;/font&gt;" style="ellipse;whiteSpace=wrap;html=1;" parent="1" vertex="1">
          <mxGeometry x="-203" y="191" width="119" height="61" as="geometry" />
        </mxCell>
        <mxCell id="Lu-fr-W5cNsqdgwYgwqe-3" value="&lt;font style=&quot;font-size: 21px;&quot;&gt;role/privilege&lt;/font&gt;" style="ellipse;whiteSpace=wrap;html=1;" parent="1" vertex="1">
          <mxGeometry x="-621" y="209" width="132" height="62" as="geometry" />
        </mxCell>
        <mxCell id="Lu-fr-W5cNsqdgwYgwqe-4" value="&lt;u&gt;&lt;font style=&quot;font-size: 21px;&quot;&gt;user_id&lt;/font&gt;&lt;/u&gt;" style="ellipse;whiteSpace=wrap;html=1;" parent="1" vertex="1">
          <mxGeometry x="-411" y="121" width="98" height="70" as="geometry" />
        </mxCell>
        <mxCell id="Lu-fr-W5cNsqdgwYgwqe-5" value="&lt;font style=&quot;font-size: 21px;&quot;&gt;password&lt;/font&gt;" style="ellipse;whiteSpace=wrap;html=1;" parent="1" vertex="1">
          <mxGeometry x="-314" y="165" width="100" height="58" as="geometry" />
        </mxCell>
        <mxCell id="Lu-fr-W5cNsqdgwYgwqe-6" value="&lt;font style=&quot;font-size: 21px;&quot;&gt;email&lt;/font&gt;" style="ellipse;whiteSpace=wrap;html=1;" parent="1" vertex="1">
          <mxGeometry x="-588" y="275" width="79" height="55" as="geometry" />
        </mxCell>
        <mxCell id="Lu-fr-W5cNsqdgwYgwqe-8" value="&lt;font style=&quot;font-size: 21px;&quot;&gt;User&lt;/font&gt;" style="rounded=0;whiteSpace=wrap;html=1;" parent="1" vertex="1">
          <mxGeometry x="-428.5" y="363" width="99" height="38" as="geometry" />
        </mxCell>
        <mxCell id="Lu-fr-W5cNsqdgwYgwqe-10" value="" style="endArrow=none;html=1;rounded=0;entryX=0.5;entryY=1;entryDx=0;entryDy=0;exitX=0.5;exitY=0;exitDx=0;exitDy=0;" parent="1" source="Lu-fr-W5cNsqdgwYgwqe-8" target="Lu-fr-W5cNsqdgwYgwqe-4" edge="1">
          <mxGeometry width="50" height="50" relative="1" as="geometry">
            <mxPoint x="-387" y="303" as="sourcePoint" />
            <mxPoint x="-337" y="253" as="targetPoint" />
          </mxGeometry>
        </mxCell>
        <mxCell id="Lu-fr-W5cNsqdgwYgwqe-11" value="" style="endArrow=none;html=1;rounded=0;exitX=0.5;exitY=0;exitDx=0;exitDy=0;" parent="1" source="Lu-fr-W5cNsqdgwYgwqe-8" edge="1">
          <mxGeometry width="50" height="50" relative="1" as="geometry">
            <mxPoint x="-280" y="373" as="sourcePoint" />
            <mxPoint x="-268" y="223" as="targetPoint" />
          </mxGeometry>
        </mxCell>
        <mxCell id="Lu-fr-W5cNsqdgwYgwqe-12" value="" style="endArrow=none;html=1;rounded=0;entryX=0.5;entryY=1;entryDx=0;entryDy=0;exitX=0.5;exitY=0;exitDx=0;exitDy=0;" parent="1" source="Lu-fr-W5cNsqdgwYgwqe-8" edge="1">
          <mxGeometry width="50" height="50" relative="1" as="geometry">
            <mxPoint x="-489" y="359" as="sourcePoint" />
            <mxPoint x="-477" y="209" as="targetPoint" />
          </mxGeometry>
        </mxCell>
        <mxCell id="Lu-fr-W5cNsqdgwYgwqe-13" value="" style="endArrow=none;html=1;rounded=0;exitX=0.5;exitY=0;exitDx=0;exitDy=0;" parent="1" source="Lu-fr-W5cNsqdgwYgwqe-8" target="Lu-fr-W5cNsqdgwYgwqe-3" edge="1">
          <mxGeometry width="50" height="50" relative="1" as="geometry">
            <mxPoint x="-414" y="401" as="sourcePoint" />
            <mxPoint x="-517" y="269" as="targetPoint" />
          </mxGeometry>
        </mxCell>
        <mxCell id="Lu-fr-W5cNsqdgwYgwqe-14" value="" style="endArrow=none;html=1;rounded=0;entryX=0.5;entryY=0;entryDx=0;entryDy=0;exitX=0;exitY=0.5;exitDx=0;exitDy=0;" parent="1" source="Lu-fr-W5cNsqdgwYgwqe-2" target="Lu-fr-W5cNsqdgwYgwqe-8" edge="1">
          <mxGeometry width="50" height="50" relative="1" as="geometry">
            <mxPoint x="-232" y="451" as="sourcePoint" />
            <mxPoint x="-335" y="319" as="targetPoint" />
          </mxGeometry>
        </mxCell>
        <mxCell id="Lu-fr-W5cNsqdgwYgwqe-15" value="" style="endArrow=none;html=1;rounded=0;entryX=1;entryY=0.5;entryDx=0;entryDy=0;exitX=0.5;exitY=0;exitDx=0;exitDy=0;" parent="1" source="Lu-fr-W5cNsqdgwYgwqe-8" target="Lu-fr-W5cNsqdgwYgwqe-6" edge="1">
          <mxGeometry width="50" height="50" relative="1" as="geometry">
            <mxPoint x="-441" y="462" as="sourcePoint" />
            <mxPoint x="-544" y="330" as="targetPoint" />
          </mxGeometry>
        </mxCell>
        <mxCell id="Lu-fr-W5cNsqdgwYgwqe-16" value="" style="endArrow=none;html=1;rounded=0;entryX=0.5;entryY=1;entryDx=0;entryDy=0;exitX=0.5;exitY=0;exitDx=0;exitDy=0;" parent="1" source="Lu-fr-W5cNsqdgwYgwqe-17" edge="1">
          <mxGeometry width="50" height="50" relative="1" as="geometry">
            <mxPoint x="-379" y="495" as="sourcePoint" />
            <mxPoint x="-379" y="401" as="targetPoint" />
          </mxGeometry>
        </mxCell>
        <mxCell id="Lu-fr-W5cNsqdgwYgwqe-17" value="&lt;font style=&quot;font-size: 21px;&quot;&gt;Book&lt;/font&gt;" style="rhombus;whiteSpace=wrap;html=1;" parent="1" vertex="1">
          <mxGeometry x="-419" y="484" width="80" height="80" as="geometry" />
        </mxCell>
        <mxCell id="Lu-fr-W5cNsqdgwYgwqe-18" value="" style="endArrow=none;html=1;rounded=0;exitX=0.5;exitY=0;exitDx=0;exitDy=0;" parent="1" source="Lu-fr-W5cNsqdgwYgwqe-32" edge="1">
          <mxGeometry width="50" height="50" relative="1" as="geometry">
            <mxPoint x="-445" y="605" as="sourcePoint" />
            <mxPoint x="-445" y="523" as="targetPoint" />
          </mxGeometry>
        </mxCell>
        <mxCell id="Lu-fr-W5cNsqdgwYgwqe-19" value="" style="endArrow=none;html=1;rounded=0;exitX=0;exitY=0.5;exitDx=0;exitDy=0;" parent="1" edge="1">
          <mxGeometry width="50" height="50" relative="1" as="geometry">
            <mxPoint x="-419" y="524" as="sourcePoint" />
            <mxPoint x="-445" y="524" as="targetPoint" />
          </mxGeometry>
        </mxCell>
        <mxCell id="Lu-fr-W5cNsqdgwYgwqe-21" value="&lt;font style=&quot;font-size: 21px;&quot;&gt;category&lt;/font&gt;" style="ellipse;whiteSpace=wrap;html=1;" parent="1" vertex="1">
          <mxGeometry x="-619" y="665.5" width="97" height="49" as="geometry" />
        </mxCell>
        <mxCell id="Lu-fr-W5cNsqdgwYgwqe-22" value="&lt;font style=&quot;font-size: 21px;&quot;&gt;&lt;u&gt;tableno&lt;/u&gt;&lt;/font&gt;" style="ellipse;whiteSpace=wrap;html=1;" parent="1" vertex="1">
          <mxGeometry x="-522" y="682" width="88" height="55" as="geometry" />
        </mxCell>
        <mxCell id="Lu-fr-W5cNsqdgwYgwqe-23" value="&lt;font style=&quot;font-size: 21px;&quot;&gt;status&lt;/font&gt;" style="ellipse;whiteSpace=wrap;html=1;" parent="1" vertex="1">
          <mxGeometry x="-434" y="673.5" width="77" height="33" as="geometry" />
        </mxCell>
        <mxCell id="Lu-fr-W5cNsqdgwYgwqe-27" value="" style="endArrow=none;html=1;rounded=0;exitX=0.479;exitY=0.982;exitDx=0;exitDy=0;entryX=0.5;entryY=0;entryDx=0;entryDy=0;exitPerimeter=0;" parent="1" source="Lu-fr-W5cNsqdgwYgwqe-32" target="Lu-fr-W5cNsqdgwYgwqe-23" edge="1">
          <mxGeometry width="50" height="50" relative="1" as="geometry">
            <mxPoint x="-451" y="681" as="sourcePoint" />
            <mxPoint x="-455" y="503" as="targetPoint" />
          </mxGeometry>
        </mxCell>
        <mxCell id="Lu-fr-W5cNsqdgwYgwqe-28" value="" style="endArrow=none;html=1;rounded=0;entryX=0.5;entryY=0;entryDx=0;entryDy=0;exitX=0.466;exitY=0.977;exitDx=0;exitDy=0;exitPerimeter=0;" parent="1" source="Lu-fr-W5cNsqdgwYgwqe-32" target="Lu-fr-W5cNsqdgwYgwqe-21" edge="1">
          <mxGeometry width="50" height="50" relative="1" as="geometry">
            <mxPoint x="-451" y="681" as="sourcePoint" />
            <mxPoint x="-664" y="489" as="targetPoint" />
          </mxGeometry>
        </mxCell>
        <mxCell id="Lu-fr-W5cNsqdgwYgwqe-29" value="" style="endArrow=none;html=1;rounded=0;exitX=0.469;exitY=0.998;exitDx=0;exitDy=0;exitPerimeter=0;" parent="1" source="Lu-fr-W5cNsqdgwYgwqe-32" target="Lu-fr-W5cNsqdgwYgwqe-22" edge="1">
          <mxGeometry width="50" height="50" relative="1" as="geometry">
            <mxPoint x="-451" y="681" as="sourcePoint" />
            <mxPoint x="-704" y="549" as="targetPoint" />
          </mxGeometry>
        </mxCell>
        <mxCell id="Lu-fr-W5cNsqdgwYgwqe-32" value="&lt;font style=&quot;font-size: 21px;&quot;&gt;Table&lt;/font&gt;" style="rounded=0;whiteSpace=wrap;html=1;" parent="1" vertex="1">
          <mxGeometry x="-489" y="583" width="88" height="38" as="geometry" />
        </mxCell>
        <mxCell id="Lu-fr-W5cNsqdgwYgwqe-60" value="" style="endArrow=none;html=1;rounded=0;exitX=0.5;exitY=0;exitDx=0;exitDy=0;" parent="1" edge="1">
          <mxGeometry width="50" height="50" relative="1" as="geometry">
            <mxPoint x="-257.9999999999998" y="582" as="sourcePoint" />
            <mxPoint x="-258" y="523" as="targetPoint" />
          </mxGeometry>
        </mxCell>
        <mxCell id="Lu-fr-W5cNsqdgwYgwqe-61" value="" style="endArrow=none;html=1;rounded=0;exitX=1;exitY=0.5;exitDx=0;exitDy=0;" parent="1" source="Lu-fr-W5cNsqdgwYgwqe-17" edge="1">
          <mxGeometry width="50" height="50" relative="1" as="geometry">
            <mxPoint x="-337" y="524" as="sourcePoint" />
            <mxPoint x="-258" y="524" as="targetPoint" />
          </mxGeometry>
        </mxCell>
        <mxCell id="Lu-fr-W5cNsqdgwYgwqe-62" value="&lt;font style=&quot;font-size: 21px;&quot;&gt;catagory&lt;/font&gt;" style="ellipse;whiteSpace=wrap;html=1;" parent="1" vertex="1">
          <mxGeometry x="-324" y="669" width="86" height="46" as="geometry" />
        </mxCell>
        <mxCell id="Lu-fr-W5cNsqdgwYgwqe-63" value="&lt;font style=&quot;font-size: 21px;&quot;&gt;&lt;u&gt;Roomno&lt;/u&gt;&lt;/font&gt;" style="ellipse;whiteSpace=wrap;html=1;" parent="1" vertex="1">
          <mxGeometry x="-227" y="673.5" width="88" height="55" as="geometry" />
        </mxCell>
        <mxCell id="Lu-fr-W5cNsqdgwYgwqe-64" value="&lt;font style=&quot;font-size: 21px;&quot;&gt;status&lt;/font&gt;" style="ellipse;whiteSpace=wrap;html=1;" parent="1" vertex="1">
          <mxGeometry x="-139" y="682.5" width="77" height="33" as="geometry" />
        </mxCell>
        <mxCell id="Lu-fr-W5cNsqdgwYgwqe-65" value="" style="endArrow=none;html=1;rounded=0;exitX=0.479;exitY=0.982;exitDx=0;exitDy=0;entryX=0.5;entryY=0;entryDx=0;entryDy=0;exitPerimeter=0;" parent="1" source="Lu-fr-W5cNsqdgwYgwqe-68" target="Lu-fr-W5cNsqdgwYgwqe-64" edge="1">
          <mxGeometry width="50" height="50" relative="1" as="geometry">
            <mxPoint x="-156" y="690" as="sourcePoint" />
            <mxPoint x="-160" y="512" as="targetPoint" />
          </mxGeometry>
        </mxCell>
        <mxCell id="Lu-fr-W5cNsqdgwYgwqe-66" value="" style="endArrow=none;html=1;rounded=0;entryX=1;entryY=0;entryDx=0;entryDy=0;exitX=0.466;exitY=0.977;exitDx=0;exitDy=0;exitPerimeter=0;" parent="1" source="Lu-fr-W5cNsqdgwYgwqe-68" target="Lu-fr-W5cNsqdgwYgwqe-62" edge="1">
          <mxGeometry width="50" height="50" relative="1" as="geometry">
            <mxPoint x="-156" y="690" as="sourcePoint" />
            <mxPoint x="-369" y="498" as="targetPoint" />
          </mxGeometry>
        </mxCell>
        <mxCell id="Lu-fr-W5cNsqdgwYgwqe-67" value="" style="endArrow=none;html=1;rounded=0;exitX=0.469;exitY=0.998;exitDx=0;exitDy=0;exitPerimeter=0;" parent="1" source="Lu-fr-W5cNsqdgwYgwqe-68" target="Lu-fr-W5cNsqdgwYgwqe-63" edge="1">
          <mxGeometry width="50" height="50" relative="1" as="geometry">
            <mxPoint x="-156" y="690" as="sourcePoint" />
            <mxPoint x="-409" y="558" as="targetPoint" />
          </mxGeometry>
        </mxCell>
        <mxCell id="Lu-fr-W5cNsqdgwYgwqe-68" value="&lt;font style=&quot;font-size: 21px;&quot;&gt;Room&lt;/font&gt;" style="rounded=0;whiteSpace=wrap;html=1;" parent="1" vertex="1">
          <mxGeometry x="-302" y="576" width="88" height="38" as="geometry" />
        </mxCell>
        <mxCell id="Lu-fr-W5cNsqdgwYgwqe-69" value="&lt;div&gt;&lt;font style=&quot;font-size: 21px;&quot;&gt;1&lt;/font&gt;&lt;/div&gt;" style="text;html=1;align=center;verticalAlign=middle;whiteSpace=wrap;rounded=0;" parent="1" vertex="1">
          <mxGeometry x="-403" y="429" width="23" height="30" as="geometry" />
        </mxCell>
        <mxCell id="Lu-fr-W5cNsqdgwYgwqe-71" value="&lt;div&gt;&lt;font style=&quot;font-size: 21px;&quot;&gt;N&lt;/font&gt;&lt;/div&gt;" style="text;html=1;align=center;verticalAlign=middle;whiteSpace=wrap;rounded=0;" parent="1" vertex="1">
          <mxGeometry x="-467" y="534" width="23" height="30" as="geometry" />
        </mxCell>
        <mxCell id="Lu-fr-W5cNsqdgwYgwqe-72" value="&lt;div&gt;&lt;font style=&quot;font-size: 21px;&quot;&gt;N&lt;/font&gt;&lt;/div&gt;" style="text;html=1;align=center;verticalAlign=middle;whiteSpace=wrap;rounded=0;" parent="1" vertex="1">
          <mxGeometry x="-250" y="534" width="23" height="30" as="geometry" />
        </mxCell>
        <mxCell id="Lu-fr-W5cNsqdgwYgwqe-74" value="&lt;font style=&quot;font-size: 19px;&quot;&gt;can&amp;nbsp;&lt;/font&gt;&lt;div&gt;&lt;font style=&quot;font-size: 19px;&quot;&gt;access&lt;/font&gt;&lt;/div&gt;" style="rhombus;whiteSpace=wrap;html=1;" parent="1" vertex="1">
          <mxGeometry x="-280" y="333" width="101" height="98" as="geometry" />
        </mxCell>
        <mxCell id="Lu-fr-W5cNsqdgwYgwqe-75" value="" style="endArrow=none;html=1;rounded=0;entryX=0;entryY=0.5;entryDx=0;entryDy=0;" parent="1" source="Lu-fr-W5cNsqdgwYgwqe-8" target="Lu-fr-W5cNsqdgwYgwqe-74" edge="1">
          <mxGeometry width="50" height="50" relative="1" as="geometry">
            <mxPoint x="-313" y="370.37" as="sourcePoint" />
            <mxPoint x="-232" y="370.37" as="targetPoint" />
          </mxGeometry>
        </mxCell>
        <mxCell id="Lu-fr-W5cNsqdgwYgwqe-79" value="" style="endArrow=none;html=1;rounded=0;entryX=0;entryY=0.5;entryDx=0;entryDy=0;exitX=1;exitY=0.5;exitDx=0;exitDy=0;" parent="1" target="Lu-fr-W5cNsqdgwYgwqe-81" edge="1" source="Lu-fr-W5cNsqdgwYgwqe-74">
          <mxGeometry width="50" height="50" relative="1" as="geometry">
            <mxPoint x="-230" y="452.99823529411753" as="sourcePoint" />
            <mxPoint x="-115" y="453.07" as="targetPoint" />
          </mxGeometry>
        </mxCell>
        <mxCell id="Lu-fr-W5cNsqdgwYgwqe-81" value="&lt;span style=&quot;font-size: 21px;&quot;&gt;Booking records&lt;/span&gt;" style="rounded=0;whiteSpace=wrap;html=1;" parent="1" vertex="1">
          <mxGeometry x="-92" y="358" width="132" height="49" as="geometry" />
        </mxCell>
        <mxCell id="Lu-fr-W5cNsqdgwYgwqe-82" value="&lt;div&gt;&lt;font style=&quot;font-size: 21px;&quot;&gt;1&lt;/font&gt;&lt;/div&gt;" style="text;html=1;align=center;verticalAlign=middle;whiteSpace=wrap;rounded=0;" parent="1" vertex="1">
          <mxGeometry x="-314" y="352" width="23" height="30" as="geometry" />
        </mxCell>
        <mxCell id="Lu-fr-W5cNsqdgwYgwqe-83" value="&lt;div&gt;&lt;font style=&quot;font-size: 21px;&quot;&gt;N&lt;/font&gt;&lt;/div&gt;" style="text;html=1;align=center;verticalAlign=middle;whiteSpace=wrap;rounded=0;" parent="1" vertex="1">
          <mxGeometry x="-141.5" y="358" width="23" height="30" as="geometry" />
        </mxCell>
        <mxCell id="Lu-fr-W5cNsqdgwYgwqe-107" value="&lt;font style=&quot;font-size: 21px;&quot;&gt;time&lt;/font&gt;" style="ellipse;whiteSpace=wrap;html=1;" parent="1" vertex="1">
          <mxGeometry x="-140.5" y="429" width="80" height="27.5" as="geometry" />
        </mxCell>
        <mxCell id="Lu-fr-W5cNsqdgwYgwqe-109" value="&lt;font style=&quot;font-size: 21px;&quot;&gt;&lt;u&gt;Booking_no&lt;/u&gt;&lt;/font&gt;" style="ellipse;whiteSpace=wrap;html=1;" parent="1" vertex="1">
          <mxGeometry x="-33" y="425" width="143.5" height="38" as="geometry" />
        </mxCell>
        <mxCell id="Lu-fr-W5cNsqdgwYgwqe-110" value="" style="endArrow=none;html=1;rounded=0;entryX=0.5;entryY=0;entryDx=0;entryDy=0;exitX=0.5;exitY=1;exitDx=0;exitDy=0;" parent="1" source="Lu-fr-W5cNsqdgwYgwqe-81" target="Lu-fr-W5cNsqdgwYgwqe-109" edge="1">
          <mxGeometry width="50" height="50" relative="1" as="geometry">
            <mxPoint x="-26.5" y="413" as="sourcePoint" />
            <mxPoint x="72" y="312" as="targetPoint" />
          </mxGeometry>
        </mxCell>
        <mxCell id="Lu-fr-W5cNsqdgwYgwqe-111" value="" style="endArrow=none;html=1;rounded=0;entryX=0.5;entryY=0;entryDx=0;entryDy=0;exitX=0.5;exitY=1;exitDx=0;exitDy=0;" parent="1" source="Lu-fr-W5cNsqdgwYgwqe-81" target="Lu-fr-W5cNsqdgwYgwqe-107" edge="1">
          <mxGeometry width="50" height="50" relative="1" as="geometry">
            <mxPoint x="-29" y="413" as="sourcePoint" />
            <mxPoint x="-137" y="298" as="targetPoint" />
          </mxGeometry>
        </mxCell>
        <mxCell id="Lu-fr-W5cNsqdgwYgwqe-130" value="&lt;font style=&quot;font-size: 21px;&quot;&gt;price&lt;/font&gt;" style="ellipse;whiteSpace=wrap;html=1;" parent="1" vertex="1">
          <mxGeometry x="-99.5" y="638" width="66.5" height="35.5" as="geometry" />
        </mxCell>
        <mxCell id="Lu-fr-W5cNsqdgwYgwqe-131" value="" style="endArrow=none;html=1;rounded=0;exitX=0.5;exitY=1;exitDx=0;exitDy=0;entryX=0;entryY=0.5;entryDx=0;entryDy=0;" parent="1" source="Lu-fr-W5cNsqdgwYgwqe-68" target="Lu-fr-W5cNsqdgwYgwqe-130" edge="1">
          <mxGeometry width="50" height="50" relative="1" as="geometry">
            <mxPoint x="-249.5" y="599" as="sourcePoint" />
            <mxPoint x="-89.5" y="669" as="targetPoint" />
          </mxGeometry>
        </mxCell>
      </root>
    </mxGraphModel>
  </diagram>
</mxfile>
